{"title":"The.General.1998.Theatrical.Version.DVDRip.XviD-EXViD","uid":6651958,"size":1467487600,"categoryP":"video","categoryS":"movies","magnet":"?xt=urn:btih:52451687b4291716997ac18b79bee546d37fbf4f&amp;dn=The.General.1998.Theatrical.Version.DVDRip.XviD-EXViD&amp;tr=udp%3A%2F%2Ftracker.openbittorrent.com%3A80&amp;tr=udp%3A%2F%2Fopen.demonii.com%3A1337&amp;tr=udp%3A%2F%2Ftracker.coppersurfer.tk%3A6969&amp;tr=udp%3A%2F%2Fexodus.desync.com%3A6969","seeders":0,"leechers":1,"uploader":"TvTeam","files":8,"time":1315186954,"description":". \n  &lt;a href=&quot;\nhttp://www.torrenting.com/&quot; rel=&quot;nofollow&quot; target=&quot;_NEW&quot;&gt;\nhttp://www.torrenting.com/&lt;/a&gt;        :     Greatest Movie Tracker on The Net!!!\n &lt;a href=&quot;\nhttp://www.Torrenting.com&quot; rel=&quot;nofollow&quot; target=&quot;_NEW&quot;&gt;\nhttp://www.Torrenting.com&lt;/a&gt;          :     Once &amp; For all ;)\n\n\n               www . Torrenting . Com \n\n(((((((((((((= Enjoy No RAR releases =))))))))))))))))))))\n\n\n...................................NFO:....................................\n\n.                                                                                                     \n       \n     \n     \n       \n       \n     \n     \n                                         \n                                         \n                EXVID                    \n                                         \n         \n                                         \n         Filled the Archives             \n                                         \n         \n                                         \n                With:                    \n                                         \n         \n                                         \n                                    \n     E240                           \n                                    \n     SP               (C) 2009      \n                                         \n     \n     \n     \n                                                                                  \n                                                                                   \n          The.General.1998.Theatrical.Version.DVDRip.XviD-EXViD                     \n                                                                                   \n                                                                                  \n     \n                                                                                               \nEXViD aims to iNTERNAL those releases which have been lost in the archives.\nEXViD aims to PRE non-internal releases which have poor sources and are likely skipped by others.\n &lt;a href=&quot;\nhttp://www.imdb.com/title/tt0120706/&quot; rel=&quot;nofollow&quot; target=&quot;_NEW&quot;&gt;\nhttp://www.imdb.com/title/tt0120706/&lt;/a&gt;\nSubtitles: English\nDate: 2011.09\n\nDirectors: John Boorman\n\nGenres: Biography | Crime | Drama | Thriller\n\nPlot:\nThe real-life story of Dublin folk hero and criminal Martin Cahill, who pulled off two daring\nrobberies in Ireland with his team, but attracted unwanted attention from the police, the IRA,\nthe UVF and members of his own team.\n\nCast:\nBrendan Gleeson \t ... \t Martin Cahill\nAdrian Dunbar \t ... \t Noel Curley\nSean McGinley \t ... \t Gary\nMaria Doyle Kennedy \t ... \t Frances\nAngeline Ball \t ... \t Tina\nJon Voight \t ... \t Inspector Ned Kenny\nEanna MacLiam \t ... \t Jimmy\nTom Murphy \t ... \t Willie Byrne\nPaul Hickey \t ... \t Anthony\nTommy O'Neill \t ... \t Paddy\nJohn O'Toole \t ... \t Shea\nCiarn Fitzgerald \t ... \t Tommy\nNed Dennehy \t ... \t Gay\nVinny Murphy \t ... \t Harry (as Vinnie Murphy)\nRoxanna Williams \t ... \t Orla\n\nStats:\nFormat                           : AVI\nFormat/Info                      : Audio Video Interleave\nFile size                        : 1.36 GiB\nDuration                         : 1h 58mn\nOverall bit rate                 : 1 640 Kbps\nWriting application              : Nandub v1.0rc2\nWriting library                  : Nandub build 1852/release\n\nVideo\nID                               : 0\nFormat                           : MPEG-4 Visual\nFormat profile                   : Advanced Simple@L5\nFormat settings, BVOP            : 1\nFormat settings, QPel            : No\nFormat settings, GMC             : No warppoints\nFormat settings, Matrix          : Default (H.263)\nCodec ID                         : XVID\nCodec ID/Hint                    : XviD\nDuration                         : 1h 58mn\nBit rate                         : 1 185 Kbps\nWidth                            : 640 pixels\nHeight                           : 272 pixels\nDisplay aspect ratio             : 2.35:1\nFrame rate                       : 25.000 fps\nColor space                      : YUV\nChroma subsampling               : 4:2:0\nBit depth                        : 8 bits\nScan type                        : Progressive\nCompression mode                 : Lossy\nBits/(Pixel*Frame)               : 0.272\nStream size                      : 1 007 MiB (72%)\nWriting library                  : XviD 64\n\nAudio\nID                               : 1\nFormat                           : AC-3\nFormat/Info                      : Audio Coding 3\nMode extension                   : CM (complete main)\nCodec ID                         : 2000\nDuration                         : 1h 58mn\nBit rate mode                    : Constant\nBit rate                         : 448 Kbps\nChannel(s)                       : 6 channels\nChannel positions                : Front: L C R, Side: L R, LFE\nSampling rate                    : 48.0 KHz\nBit depth                        : 16 bits\nCompression mode                 : Lossy\nStream size                      : 380 MiB (27%)\nAlignment                        : Aligned on interleaves\nInterleave, duration             : 96 ms (2.40 video frames)\nInterleave, preload duration     : 96 ms\n\n\n\n\nRelease notes:\nPosTX rip was colorized. This is the original black and white version. Sample included.\n\nps. PosTX rip has frameskips as you can see in the sample.\n\nenjoy!\n\nLooking for:\n75TB+ Archives\nDUTCH/FLEMiSH Archives\n                                                                                                    \nGreets: CRBS EPiSODE FiCO FLS iLS KLASSiGER LiPSYNC MADE NODLABS RUNNER SPRiNTER      \n   \n\n                                                                    ASCII DONE BY XX^NFO 2oo9","torrent":{"xt":"urn:btih:52451687b4291716997ac18b79bee546d37fbf4f","amp;dn":"The.General.1998.Theatrical.Version.DVDRip.XviD-EXViD","amp;tr":["udp%3A%2F%2Ftracker.openbittorrent.com%3A80","udp%3A%2F%2Fopen.demonii.com%3A1337","udp%3A%2F%2Ftracker.coppersurfer.tk%3A6969","udp%3A%2F%2Fexodus.desync.com%3A6969"],"infoHash":"52451687b4291716997ac18b79bee546d37fbf4f","infoHashBuffer":{"type":"Buffer","data":[82,69,22,135,180,41,23,22,153,122,193,139,121,190,229,70,211,127,191,79]},"announce":[],"urlList":[]}}